<svg width="25" height="34" viewBox="0 0 25 34" fill="none" xmlns="http://www.w3.org/2000/svg">
<path d="M19.0266 1.85024C19.6266 2.19139 19.9464 2.55925 20.1733 3.21827C20.3003 3.75258 20.3285 4.24823 20.3241 4.79334C20.3244 4.89766 20.3246 5.00198 20.3248 5.10945C20.3252 5.45701 20.3238 5.80453 20.3224 6.15209C20.3223 6.40201 20.3223 6.65194 20.3225 6.90187C20.3226 7.57903 20.321 8.25617 20.3192 8.93332C20.3176 9.64148 20.3174 10.3497 20.3171 11.0578C20.3163 12.3982 20.3142 13.7386 20.3115 15.0791C20.3086 16.6053 20.3072 18.1316 20.3059 19.6579C20.3035 22.3155 20.2999 24.9732 20.2953 27.6308C20.2944 28.1688 19.665 28.4192 19.3534 27.9806C18.5319 26.9202 17.5483 26.4394 16.2412 26.1999C15.0509 26.0746 13.9818 26.5061 13.0398 27.2123C11.9907 28.1566 11.3106 29.3438 10.6463 30.5715C10.1483 31.4764 9.54991 32.2768 8.53038 32.6038C7.5772 32.7117 6.69161 32.6983 5.91653 32.0811C4.91719 30.9818 5.05012 29.7006 5.10391 28.2933C5.30256 25.5407 6.51496 22.8606 8.00761 20.5801C7.63685 20.7037 7.29584 20.859 6.94394 21.0278C6.51662 21.2321 6.08613 21.4293 5.65514 21.6257C5.54901 21.6744 5.44287 21.723 5.33352 21.7732C4.0954 22.2642 2.59883 22.1797 1.38313 21.6696C0.78579 21.3245 0.45644 20.856 0.117046 20.2697C-0.0816878 19.4351 -0.0431583 18.7937 0.355272 18.0188C0.801969 17.3276 1.42236 16.7696 2.00456 16.1929C2.1537 16.0433 2.30272 15.8935 2.45165 15.7437C2.8547 15.3388 3.25937 14.9356 3.66441 14.5327C4.08912 14.1098 4.5125 13.6856 4.93607 13.2615C5.64752 12.5497 6.36003 11.839 7.07317 11.1289C7.89621 10.3093 8.71761 9.48813 9.53815 8.66606C10.3293 7.87355 11.1215 7.08215 11.9142 6.29126C12.2507 5.95547 12.5869 5.6193 12.9228 5.28282C13.3188 4.88618 13.7157 4.49054 14.1135 4.09562C14.2588 3.95103 14.4038 3.80611 14.5484 3.66083C17.1978 1.00091 17.1978 1.00091 19.0266 1.85024Z" fill="url(#paint0_linear_8170_11039)"/>
<path d="M17.7131 22.2289C18.6597 22.9505 19.6332 23.7664 20.2963 24.7611C20.3187 25.0934 20.3267 25.4109 20.3218 25.7428C20.3215 25.838 20.3211 25.9332 20.3207 26.0313C20.3193 26.3349 20.316 26.6384 20.3126 26.9421C20.3113 27.148 20.3101 27.354 20.3091 27.56C20.3089 27.5833 20.3088 27.6065 20.3087 27.6297C20.3054 28.1717 19.6709 28.4213 19.357 27.9794C18.5355 26.919 17.5519 26.4382 16.2448 26.1987C15.0545 26.0734 13.9854 26.5049 13.0434 27.2111C11.9943 28.1554 11.3142 29.3427 10.6499 30.5704C10.1519 31.4752 9.55354 32.2757 8.53401 32.6027C7.58083 32.7105 6.69525 32.6971 5.92017 32.0799C4.92083 30.9806 5.05375 29.6995 5.10754 28.2921C5.28487 25.835 6.30729 23.3891 7.52114 21.2733C7.575 21.1785 7.62886 21.0836 7.68435 20.986C8.06934 20.3463 8.06935 20.3463 8.36631 20.2287C11.658 19.7669 14.9969 20.2478 17.7131 22.2289Z" fill="#29DCA4"/>
<path d="M20.2874 11.9531C20.2874 16.1797 20.2874 20.4063 20.2874 24.761C19.6339 24.1075 19.6339 24.1075 19.3771 23.8323C17.5155 21.8675 14.9897 20.4113 12.2399 20.2756C11.6329 20.2605 11.0269 20.2713 10.4201 20.2848C10.2092 20.2874 9.99841 20.2898 9.78757 20.2919C9.27952 20.2976 8.77163 20.3065 8.26367 20.3174C8.87581 19.4882 9.51748 18.7162 10.224 17.965C10.2887 17.8958 10.3534 17.8267 10.4201 17.7555C12.7279 15.3084 16.6893 11.9531 20.2874 11.9531Z" fill="#3B75FD"/>
<defs>
<linearGradient id="paint0_linear_8170_11039" x1="20.3249" y1="-0.854207" x2="-1.01625" y2="21.0798" gradientUnits="userSpaceOnUse">
<stop stop-color="#9775FF"/>
<stop offset="1" stop-color="#6675FF"/>
</linearGradient>
</defs>
</svg>
